<svg width="562" height="107" viewBox="0 0 562 107" fill="none" xmlns="http://www.w3.org/2000/svg">
<path d="M11.3945 35.4472C10.3934 35.4472 9.4218 35.2706 8.47962 34.9172C7.59633 34.505 6.80136 33.9751 6.09473 33.3273C5.44698 32.6207 4.917 31.8257 4.5048 30.9424C4.15148 30.0591 3.97482 29.0875 3.97482 28.0276C3.97482 26.9676 4.15148 25.996 4.5048 25.1127C4.917 24.2294 5.44698 23.4639 6.09473 22.8161C6.80136 22.1095 7.59633 21.5795 8.47962 21.2262C9.4218 20.814 10.3934 20.6079 11.3945 20.6079C13.4555 20.6079 15.2221 21.344 16.6943 22.8161C18.1664 24.2294 18.9025 25.9665 18.9025 28.0276C18.9025 30.0886 18.1664 31.8552 16.6943 33.3273C15.2221 34.7406 13.4555 35.4472 11.3945 35.4472ZM5.65308 85V41.7186H17.2242V85H5.65308ZM64.9138 73.9588C63.0294 77.6098 60.3796 80.613 56.9642 82.9684C53.6076 85.265 49.3973 86.4133 44.3331 86.4133C40.9765 86.4133 37.885 85.8539 35.0585 84.735C32.2908 83.5573 29.8765 81.9379 27.8155 79.8769C25.8133 77.8159 24.2234 75.4015 23.0457 72.6339C21.9268 69.8073 21.3674 66.7158 21.3674 63.3593C21.3674 60.0028 21.9268 56.9113 23.0457 54.0847C24.2234 51.2582 25.8133 48.8438 27.8155 46.8417C29.8765 44.7807 32.2908 43.1908 35.0585 42.0719C37.885 40.8942 40.9765 40.3053 44.3331 40.3053C49.3384 40.3053 53.5488 41.4536 56.9642 43.7502C60.3796 46.0467 62.8822 49.0205 64.4722 52.6714L53.8726 57.0879C52.8716 55.0858 51.5761 53.5842 49.9861 52.5831C48.4551 51.5232 46.5119 50.9932 44.1564 50.9932C42.6254 50.9932 41.1827 51.2876 39.8283 51.8765C38.4739 52.4653 37.2667 53.2898 36.2068 54.3497C35.2057 55.4097 34.4107 56.7052 33.8219 58.2362C33.233 59.7672 32.9386 61.4749 32.9386 63.3593C32.9386 65.2437 33.233 66.9514 33.8219 68.4824C34.4107 70.0134 35.2057 71.3089 36.2068 72.3689C37.2667 73.4289 38.4739 74.2533 39.8283 74.8421C41.1827 75.431 42.6254 75.7254 44.1564 75.7254C46.5707 75.7254 48.6023 75.1954 50.2511 74.1355C51.9588 73.0166 53.3132 71.4267 54.3143 69.3657L64.9138 73.9588ZM72.7786 51.6115H65.1822V41.7186H72.7786V28.4692H84.3497V41.7186H94.9492V51.6115H84.3497V68.3941C84.3497 69.3951 84.438 70.3373 84.6147 71.2206C84.8503 72.045 85.2625 72.7517 85.8513 73.3405C86.6757 74.2827 87.8535 74.7538 89.3845 74.7538C90.3856 74.7538 91.1805 74.6655 91.7694 74.4888C92.3582 74.2533 92.9177 73.9588 93.4476 73.6055L96.7158 83.7634C95.3614 84.4111 93.8893 84.8822 92.2994 85.1767C90.7683 85.53 89.0606 85.7066 87.1763 85.7066C84.9975 85.7066 83.0248 85.3828 81.2582 84.735C79.5505 84.0284 78.1078 83.0862 76.9301 81.9085C74.1624 79.2586 72.7786 75.4899 72.7786 70.6023V51.6115ZM100.359 21.7562H111.931V40.747L111.224 46.93H111.931C112.991 45.1046 114.639 43.5441 116.877 42.2486C119.115 40.9531 121.882 40.3053 125.18 40.3053C127.948 40.3053 130.568 40.8942 133.041 42.0719C135.573 43.1908 137.782 44.7807 139.666 46.8417C141.609 48.8438 143.14 51.2582 144.259 54.0847C145.378 56.9113 145.937 60.0028 145.937 63.3593C145.937 66.7158 145.378 69.8073 144.259 72.6339C143.14 75.4604 141.609 77.9042 139.666 79.9652C137.782 81.9674 135.573 83.5573 133.041 84.735C130.568 85.8539 127.948 86.4133 125.18 86.4133C121.882 86.4133 119.115 85.7655 116.877 84.47C114.639 83.1745 112.991 81.614 111.931 79.7886H111.224V85H100.359V21.7562ZM122.795 75.7254C124.326 75.7254 125.769 75.431 127.123 74.8421C128.536 74.2533 129.773 73.4289 130.833 72.3689C131.893 71.3089 132.747 70.0134 133.395 68.4824C134.042 66.9514 134.366 65.2437 134.366 63.3593C134.366 61.4749 134.042 59.7672 133.395 58.2362C132.747 56.7052 131.893 55.4097 130.833 54.3497C129.773 53.2898 128.536 52.4653 127.123 51.8765C125.769 51.2876 124.326 50.9932 122.795 50.9932C121.264 50.9932 119.792 51.2876 118.379 51.8765C117.024 52.4065 115.817 53.2014 114.757 54.2614C113.697 55.3213 112.843 56.6168 112.196 58.1479C111.548 59.6789 111.224 61.4161 111.224 63.3593C111.224 65.3025 111.548 67.0397 112.196 68.5707C112.843 70.1018 113.697 71.3973 114.757 72.4572C115.817 73.5172 117.024 74.3416 118.379 74.9305C119.792 75.4604 121.264 75.7254 122.795 75.7254ZM161.667 82.8801L143.471 41.7186H156.632L167.585 67.9524H168.203L178.714 41.7186H191.611L164.493 104.079H152.039L161.667 82.8801ZM223.869 79.7886H223.162C222.102 81.614 220.453 83.1745 218.216 84.47C215.978 85.7655 213.21 86.4133 209.913 86.4133C207.145 86.4133 204.495 85.8539 201.963 84.735C199.49 83.5573 197.282 81.9674 195.338 79.9652C193.454 77.9042 191.952 75.4604 190.834 72.6339C189.715 69.8073 189.155 66.7158 189.155 63.3593C189.155 60.0028 189.715 56.9113 190.834 54.0847C191.952 51.2582 193.454 48.8438 195.338 46.8417C197.282 44.7807 199.49 43.1908 201.963 42.0719C204.495 40.8942 207.145 40.3053 209.913 40.3053C213.21 40.3053 215.978 40.9531 218.216 42.2486C220.453 43.5441 222.102 45.1046 223.162 46.93H223.869L223.162 40.747V21.7562H234.733V85H223.869V79.7886ZM212.298 75.7254C213.829 75.7254 215.271 75.4604 216.626 74.9305C218.039 74.3416 219.276 73.5172 220.336 72.4572C221.395 71.3973 222.249 70.1018 222.897 68.5707C223.545 67.0397 223.869 65.3025 223.869 63.3593C223.869 61.4161 223.545 59.6789 222.897 58.1479C222.249 56.6168 221.395 55.3213 220.336 54.2614C219.276 53.2014 218.039 52.4065 216.626 51.8765C215.271 51.2876 213.829 50.9932 212.298 50.9932C210.767 50.9932 209.294 51.2876 207.881 51.8765C206.527 52.4653 205.32 53.2898 204.26 54.3497C203.2 55.4097 202.346 56.7052 201.698 58.2362C201.05 59.7672 200.726 61.4749 200.726 63.3593C200.726 65.2437 201.05 66.9514 201.698 68.4824C202.346 70.0134 203.2 71.3089 204.26 72.3689C205.32 73.4289 206.527 74.2533 207.881 74.8421C209.294 75.431 210.767 75.7254 212.298 75.7254ZM271.002 79.3469H270.295C268.941 81.5257 267.116 83.2629 264.819 84.5584C262.522 85.795 259.902 86.4133 256.958 86.4133C251.481 86.4133 247.389 84.735 244.68 81.3785C242.03 78.022 240.705 73.5466 240.705 67.9524V41.7186H252.276V66.5392C252.276 69.6601 252.953 71.9861 254.308 73.5172C255.721 74.9893 257.753 75.7254 260.403 75.7254C261.992 75.7254 263.376 75.4015 264.554 74.7538C265.791 74.0472 266.821 73.1344 267.646 72.0156C268.529 70.8379 269.177 69.4835 269.589 67.9524C270.06 66.3625 270.295 64.6842 270.295 62.9177V41.7186H281.867V85H271.002V79.3469ZM288.246 85V21.7562H299.817V85H288.246ZM332.435 80.4069H331.729C330.374 82.0557 328.725 83.469 326.782 84.6467C324.898 85.8244 322.454 86.4133 319.451 86.4133C317.213 86.4133 315.093 86.0305 313.091 85.265C311.148 84.5584 309.44 83.5573 307.968 82.2618C306.496 80.9663 305.348 79.4058 304.523 77.5803C303.699 75.7549 303.286 73.7527 303.286 71.5739C303.286 69.3363 303.728 67.3341 304.611 65.5675C305.495 63.7421 306.731 62.1816 308.321 60.8861C309.911 59.5906 311.766 58.619 313.886 57.9712C316.065 57.2646 318.42 56.9113 320.952 56.9113C323.779 56.9113 326.105 57.1468 327.93 57.6179C329.756 58.0301 331.257 58.4717 332.435 58.9428V57.6179C332.435 55.3213 331.522 53.437 329.697 51.9648C327.871 50.4338 325.604 49.6683 322.896 49.6683C318.891 49.6683 315.505 51.3465 312.738 54.703L304.346 48.9616C308.94 43.1908 315.211 40.3053 323.161 40.3053C329.874 40.3053 334.997 41.8953 338.53 45.0751C342.063 48.1961 343.83 52.8481 343.83 59.0312V85H332.435V80.4069ZM332.435 67.4225C331.081 66.7747 329.668 66.2742 328.195 65.9209C326.782 65.5087 325.222 65.3026 323.514 65.3026C320.746 65.3026 318.597 65.9209 317.066 67.1575C315.594 68.3352 314.858 69.8073 314.858 71.5739C314.858 73.3405 315.564 74.7538 316.978 75.8137C318.45 76.8737 320.128 77.4037 322.012 77.4037C323.543 77.4037 324.957 77.1387 326.252 76.6087C327.548 76.0198 328.637 75.2838 329.52 74.4005C330.462 73.4583 331.169 72.3983 331.64 71.2206C332.17 69.984 332.435 68.718 332.435 67.4225ZM360.361 47.3717H361.068C362.422 45.1929 364.248 43.4852 366.544 42.2486C368.841 40.9531 371.461 40.3053 374.405 40.3053C377.114 40.3053 379.499 40.747 381.56 41.6303C383.621 42.5136 385.299 43.7796 386.595 45.4284C387.949 47.0184 388.95 48.9616 389.598 51.2582C390.305 53.4959 390.658 55.9985 390.658 58.7662V85H379.087V60.1794C379.087 57.0585 378.38 54.7619 376.967 53.2898C375.613 51.7587 373.61 50.9932 370.961 50.9932C369.371 50.9932 367.957 51.3465 366.721 52.0531C365.543 52.7009 364.513 53.6136 363.629 54.7914C362.805 55.9102 362.157 57.2646 361.686 58.8545C361.274 60.3855 361.068 62.0344 361.068 63.801V85H349.497V41.7186H360.361V47.3717ZM399.599 85.53C398.715 85.53 397.979 85.2355 397.39 84.6467C396.802 84.0578 396.507 83.3217 396.507 82.4384C396.507 81.5552 396.802 80.8191 397.39 80.2302C397.979 79.6414 398.715 79.3469 399.599 79.3469C400.482 79.3469 401.218 79.6414 401.807 80.2302C402.396 80.8191 402.69 81.5552 402.69 82.4384C402.69 83.3217 402.396 84.0578 401.807 84.6467C401.218 85.2355 400.482 85.53 399.599 85.53ZM446.036 74.2238C444.388 78.0514 442.062 81.0546 439.058 83.2334C436.055 85.3533 432.286 86.4133 427.752 86.4133C424.749 86.4133 421.952 85.8244 419.361 84.6467C416.829 83.469 414.591 81.8496 412.648 79.7886C410.764 77.7275 409.291 75.3132 408.231 72.5456C407.171 69.719 406.642 66.6569 406.642 63.3593C406.642 60.0617 407.171 57.029 408.231 54.2614C409.291 51.4348 410.764 48.9911 412.648 46.93C414.591 44.869 416.829 43.2496 419.361 42.0719C421.952 40.8942 424.749 40.3053 427.752 40.3053C432.286 40.3053 436.055 41.3947 439.058 43.5735C442.062 45.6934 444.388 48.6672 446.036 52.4948L443.298 53.7314C441.767 50.316 439.706 47.6956 437.115 45.8701C434.583 44.0446 431.462 43.1319 427.752 43.1319C425.456 43.1319 423.218 43.6324 421.039 44.6335C418.919 45.5757 417.005 46.93 415.298 48.6966C413.649 50.4632 412.324 52.5831 411.323 55.0563C410.322 57.5296 409.821 60.2972 409.821 63.3593C409.821 66.4214 410.322 69.189 411.323 71.6623C412.324 74.1355 413.649 76.2554 415.298 78.022C417.005 79.7886 418.919 81.1724 421.039 82.1735C423.218 83.1156 425.456 83.5867 427.752 83.5867C431.462 83.5867 434.583 82.674 437.115 80.8485C439.706 79.023 441.767 76.4026 443.298 72.9872L446.036 74.2238ZM468.651 40.3053C471.713 40.3053 474.539 40.8942 477.13 42.0719C479.78 43.2496 482.047 44.869 483.932 46.93C485.875 48.9911 487.377 51.4348 488.437 54.2614C489.555 57.029 490.115 60.0617 490.115 63.3593C490.115 66.6569 489.555 69.719 488.437 72.5456C487.377 75.3132 485.875 77.7275 483.932 79.7886C482.047 81.8496 479.78 83.469 477.13 84.6467C474.539 85.8244 471.713 86.4133 468.651 86.4133C465.589 86.4133 462.733 85.8244 460.083 84.6467C457.492 83.469 455.225 81.8496 453.281 79.7886C451.397 77.7275 449.896 75.3132 448.777 72.5456C447.717 69.719 447.187 66.6569 447.187 63.3593C447.187 60.0617 447.717 57.029 448.777 54.2614C449.896 51.4348 451.397 48.9911 453.281 46.93C455.225 44.869 457.492 43.2496 460.083 42.0719C462.733 40.8942 465.589 40.3053 468.651 40.3053ZM468.651 83.5867C471.006 83.5867 473.273 83.0862 475.452 82.0851C477.69 81.0841 479.663 79.7002 481.37 77.9337C483.078 76.1082 484.432 73.9588 485.433 71.4856C486.434 69.0124 486.935 66.3036 486.935 63.3593C486.935 60.415 486.434 57.7062 485.433 55.233C484.432 52.7598 483.078 50.6399 481.37 48.8733C479.663 47.0478 477.69 45.6345 475.452 44.6335C473.273 43.6324 471.006 43.1319 468.651 43.1319C466.236 43.1319 463.94 43.6324 461.761 44.6335C459.582 45.6345 457.639 47.0478 455.931 48.8733C454.224 50.6399 452.869 52.7598 451.868 55.233C450.867 57.7062 450.367 60.415 450.367 63.3593C450.367 66.3036 450.867 69.0124 451.868 71.4856C452.869 73.9588 454.224 76.1082 455.931 77.9337C457.639 79.7002 459.582 81.0841 461.761 82.0851C463.94 83.0862 466.236 83.5867 468.651 83.5867ZM494.009 41.7186H496.835V51.9648H497.189C497.778 50.3749 498.573 48.8733 499.574 47.46C500.575 46.0467 501.752 44.8101 503.107 43.7502C504.461 42.6902 505.963 41.8658 507.612 41.277C509.26 40.6292 511.056 40.3053 513 40.3053C515.002 40.3053 516.768 40.6292 518.299 41.277C519.831 41.8658 521.126 42.6902 522.186 43.7502C523.305 44.8101 524.218 46.0467 524.924 47.46C525.631 48.8733 526.131 50.3749 526.426 51.9648C527.074 50.3749 527.898 48.8733 528.899 47.46C529.959 46.0467 531.166 44.8101 532.521 43.7502C533.875 42.6902 535.406 41.8658 537.114 41.277C538.821 40.6292 540.676 40.3053 542.678 40.3053C545.21 40.3053 547.36 40.747 549.126 41.6303C550.893 42.5136 552.336 43.7207 553.455 45.2518C554.573 46.7828 555.368 48.5789 555.839 50.6399C556.311 52.7009 556.546 54.8797 556.546 57.1762V85H553.366V57.8829C553.366 55.8219 553.16 53.9081 552.748 52.1415C552.395 50.316 551.776 48.7555 550.893 47.46C550.01 46.1056 548.832 45.0457 547.36 44.2802C545.947 43.5146 544.18 43.1319 542.06 43.1319C539.764 43.1319 537.673 43.6619 535.789 44.7218C533.904 45.7229 532.285 47.1067 530.931 48.8733C529.635 50.6399 528.634 52.7009 527.927 55.0563C527.221 57.3529 526.867 59.8261 526.867 62.476V85H523.688V58.2362C523.688 56.1163 523.481 54.1436 523.069 52.3181C522.657 50.4338 522.009 48.8144 521.126 47.46C520.243 46.1056 519.094 45.0457 517.681 44.2802C516.268 43.5146 514.531 43.1319 512.47 43.1319C510.114 43.1319 507.994 43.7207 506.11 44.8985C504.226 46.0173 502.606 47.5189 501.252 49.4033C499.956 51.2876 498.955 53.4959 498.249 56.028C497.542 58.5012 497.189 61.0922 497.189 63.801V85H494.009V41.7186Z" fill="black"/>
</svg>
