<svg width="753" height="62" viewBox="0 0 753 62" fill="none" xmlns="http://www.w3.org/2000/svg">
<g clip-path="url(#clip0_4_118)">
<path d="M752.42 1.42V30.59L748.92 34.09H698.97L717.76 55.79L718.45 56.61L714.21 60.28L713.16 61.17L712.07 59.91L688.98 32.5L688.96 30.59L688.98 28.67L712.07 1.26L713.16 0L714.21 0.89L718.45 4.56L717.76 5.38L698.96 27.09H745.42V1.42H752.42Z" fill="black"/>
<path d="M10.26 1.28V59.89H0V1.28H10.26ZM44.82 60.85C27.74 60.85 16.68 48.99 16.68 30.63C16.68 12.27 28.14 0.32 45.3 0.32C59.17 0.32 69.51 8.42 71.52 21H60.7C58.7 14.19 52.84 10.18 45.07 10.18C34.25 10.18 27.43 18.04 27.43 30.54C27.43 43.04 34.32 50.98 45.07 50.98C53.01 50.98 59.1 46.81 61.02 40.32H71.68C69.44 52.67 58.69 60.84 44.82 60.84V60.85ZM69.33 10.74V1.28H113.9V10.74H96.74V59.89H86.48V10.74H69.32H69.33ZM118.54 59.88V1.28H141.87C153.41 1.28 160.47 7.29 160.47 17.07C160.47 23.56 157.58 28.21 152.05 30.54C158.22 32.54 161.35 37.19 161.35 44.01C161.35 54.03 154.37 59.88 142.27 59.88H118.54ZM140.99 10.34H128.81V26.29H141.24C146.85 26.29 149.98 23.32 149.98 18.11C149.98 12.9 146.77 10.33 141 10.33L140.99 10.34ZM141.87 34.95H128.8V50.82H141.87C147.64 50.82 150.85 48.01 150.85 42.72C150.85 37.75 147.56 34.94 141.87 34.94V34.95ZM179.47 36.79L159.67 1.28H171.13L182.67 22.6C183.55 24.2 184.11 25.49 184.75 26.93C185.47 25.49 185.79 24.53 186.83 22.6L198.31 1.28H209.45L189.73 36.79V59.88H179.47V36.79ZM234.59 59.88H213.51V1.28H234.03C251.35 1.28 263.29 13.23 263.29 30.7C263.29 48.17 251.59 59.88 234.59 59.88ZM233.07 10.74H223.77V50.43H233.63C245.34 50.43 252.47 42.89 252.47 30.71C252.47 18.53 245.18 10.75 233.07 10.75V10.74ZM269.24 38.48V1.28H279.5V37.84C279.5 46.26 284.07 50.91 292.41 50.91C300.75 50.91 305.4 46.18 305.4 37.84V1.28H315.66V38.48C315.66 52.19 306.68 60.85 292.41 60.85C278.14 60.85 269.24 52.27 269.24 38.48ZM335.34 1.28V50.43H359.87V59.89H325.08V1.28H335.34ZM371.62 59.88H360.96L382.13 1.28H392.63L413.79 59.88H402.97L398.24 46.33H376.35L371.62 59.88ZM386.05 18.75L379.4 37.67H395.27L388.54 18.75C388.06 17.23 387.5 15.46 387.34 14.26C387.1 15.38 386.62 17.15 386.06 18.75H386.05ZM428.03 59.88H417.93V1.28H428.11L455.61 42.81V1.28H465.71V59.89H455.61L428.03 18.36V59.89V59.88ZM480.6 60.84C477.07 60.84 474.11 57.95 474.11 54.51C474.11 51.07 477.08 48.1 480.6 48.1C484.12 48.1 487.09 50.99 487.09 54.51C487.09 58.03 484.12 60.84 480.6 60.84ZM519.08 60.76C503.53 60.76 492.7 48.73 492.7 31.42C492.7 14.11 503.6 2 519.4 2C531.02 2 540.48 9.22 542.97 20.04H538.72C536.15 11.22 528.62 5.69 519.16 5.69C505.77 5.69 496.63 16.11 496.63 31.42C496.63 46.73 505.77 57.07 519.16 57.07C528.62 57.07 536.4 51.78 539.04 43.6H543.29C540.56 53.86 530.78 60.76 519.08 60.76ZM600.68 31.42C600.68 48.66 589.54 60.84 573.74 60.84C557.94 60.84 546.88 48.65 546.88 31.42C546.88 14.19 558.02 2 573.74 2C589.46 2 600.68 14.19 600.68 31.42ZM596.75 31.42C596.75 16.27 587.29 5.69 573.74 5.69C560.19 5.69 550.81 16.27 550.81 31.42C550.81 46.57 560.27 57.15 573.74 57.15C587.21 57.15 596.75 46.57 596.75 31.42ZM612.12 59.88H608.27V2.97H612.12L633.93 55.24L655.65 2.97H659.58V59.89H655.73V28.7C655.73 19.4 655.89 14.59 656.13 10.82L635.85 59.88H632L611.72 11.06C611.88 12.66 612.12 19.32 612.12 28.7V59.89V59.88Z" fill="black"/>
</g>
<defs>
<clipPath id="clip0_4_118">
<rect width="752.42" height="61.17" fill="white"/>
</clipPath>
</defs>
</svg>
