<svg width="49" height="49" viewBox="0 0 49 49" fill="none" xmlns="http://www.w3.org/2000/svg">
<g clip-path="url(#clip0_4_123)">
<path d="M24.0256 48.0512C37.2946 48.0512 48.0512 37.2946 48.0512 24.0256C48.0512 10.7566 37.2946 0 24.0256 0C10.7566 0 0 10.7566 0 24.0256C0 37.2946 10.7566 48.0512 24.0256 48.0512Z" fill="black"/>
<path d="M11.3045 30.195V31.8654H14.3279L13.1048 30.4524L13.0595 30.3984L13.3352 30.1595L13.4038 30.1019L13.4749 30.184L14.9774 31.9684V32.0934V32.2171L13.4749 34.0015L13.4038 34.0837L13.3352 34.0261L13.0595 33.7871L13.1048 33.7331L14.3279 32.3213H11.0765L10.8486 32.0934V30.195H11.3045ZM10.8964 14.3303V21.512H12.1538V14.3303H10.8964ZM19.6799 19.1148H18.3734C18.1381 19.9102 17.3905 20.4213 16.4187 20.4213C15.1024 20.4213 14.2568 19.4384 14.2568 17.9163C14.2568 16.3941 15.0914 15.421 16.4187 15.421C17.3722 15.421 18.0891 15.9125 18.3342 16.7471H19.6603C19.4151 15.2041 18.1467 14.2127 16.4469 14.2127C14.3438 14.2127 12.9394 15.6968 12.9394 17.9261C12.9394 20.1553 14.2948 21.6297 16.388 21.6297C18.0879 21.6297 19.4041 20.6272 19.6799 19.1148ZM21.4949 15.4897V21.512H22.7523V15.4897H24.8553V14.3303H19.3931V15.4897H21.4961H21.4949ZM28.331 21.512C29.8139 21.512 30.6693 20.7951 30.6693 19.5671C30.6693 18.7325 30.2857 18.1626 29.5296 17.9163C30.2073 17.6319 30.5615 17.062 30.5615 16.2654C30.5615 15.0669 29.6975 14.3303 28.282 14.3303H25.4228V21.512H28.331ZM29.2747 16.3929C29.2747 17.0314 28.8911 17.3954 28.2035 17.3954H26.6802V15.4406H28.1729C28.88 15.4406 29.2734 15.7752 29.2734 16.3941L29.2747 16.3929ZM29.3825 19.409C29.3825 20.0573 28.9891 20.4017 28.282 20.4017H26.6802V18.4567H28.282C28.9793 18.4567 29.3825 18.8011 29.3825 19.4102V19.409ZM32.89 21.512H34.1474V18.6822L36.5642 14.3303H35.1989L33.7945 16.9432C33.667 17.1785 33.6278 17.2973 33.5396 17.4738C33.4611 17.2973 33.3925 17.1393 33.2846 16.9432L31.8704 14.3303H30.4659L32.8925 18.6822V21.512H32.89ZM15.9064 25.1359C15.9064 23.3503 14.6858 22.1297 12.9173 22.1297H10.8204V28.1177H12.9749C14.7115 28.1177 15.9076 26.8971 15.9076 25.1359H15.9064ZM14.801 25.1359C14.801 26.3811 14.0718 27.1507 12.8756 27.1507H11.8682V23.0966H12.818C14.0546 23.0966 14.7997 23.8663 14.7997 25.1359H14.801ZM18.882 28.2157C20.3404 28.2157 21.2571 27.3309 21.2571 25.9301V22.1297H20.2093V25.8651C20.2093 26.7169 19.7338 27.1998 18.882 27.1998C18.0303 27.1998 17.5633 26.7242 17.5633 25.8651V22.1297H16.5155V25.9301C16.5155 27.3395 17.4334 28.2157 18.882 28.2157ZM22.2192 22.1297V28.1177H25.7745V27.1507H23.2683V22.1297H22.2192ZM27.4584 26.7328H29.695L30.1779 28.1177H31.2833L29.1215 22.1297H28.0479L25.886 28.1177H26.9755L27.4584 26.7328ZM28.581 23.4569C28.5969 23.5795 28.6545 23.7597 28.7036 23.9153L29.3911 25.848H27.7697L28.4499 23.9153C28.5075 23.7511 28.5565 23.5709 28.581 23.4569ZM32.7393 23.8749L35.5568 28.1177H36.5887V22.1297H35.5568V26.3725L32.7479 22.1297H31.7074V28.1177H32.7393V23.8749ZM12.1048 35.7087C12.1048 35.3643 11.8155 35.0837 11.4712 35.0837C11.1268 35.0837 10.8375 35.3656 10.8375 35.7087C10.8375 36.0519 11.1268 36.3264 11.4712 36.3264C11.8155 36.3264 12.1048 36.0445 12.1048 35.7087ZM22.3466 34.1278H21.8258C21.501 35.1303 20.5488 35.7786 19.3894 35.7786C17.7484 35.7786 16.6283 34.5114 16.6283 32.6351C16.6283 30.7587 17.7484 29.4817 19.3894 29.4817C20.5488 29.4817 21.4728 30.1595 21.7866 31.2404H22.3074C22.0023 29.9143 20.8429 29.0295 19.4188 29.0295C17.4837 29.0295 16.1466 30.5038 16.1466 32.6351C16.1466 34.7663 17.4727 36.2308 19.3796 36.2308C20.8135 36.2308 22.0121 35.3864 22.3466 34.1278ZM26.0784 29.0283C24.1531 29.0283 22.7866 30.5222 22.7866 32.6338C22.7866 34.7454 24.1421 36.2394 26.0784 36.2394C28.0148 36.2394 29.3801 34.7454 29.3801 32.6338C29.3801 30.5222 28.0148 29.0283 26.0784 29.0283ZM26.0784 35.7884C24.4276 35.7884 23.2683 34.4918 23.2683 32.6351C23.2683 30.7784 24.4276 29.4817 26.0784 29.4817C27.7292 29.4817 28.8984 30.7784 28.8984 32.6351C28.8984 34.4918 27.739 35.7884 26.0784 35.7884ZM30.7821 32.3005C30.7821 31.1509 30.7527 30.3359 30.7331 30.1386L33.2185 36.1217H33.6903L36.1757 30.1092C36.1463 30.5712 36.1267 31.1607 36.1267 32.3005V36.123H36.5985V29.1472H36.1169L33.455 35.5531L30.7821 29.1472H30.3102V36.123H30.7821V32.3005Z" fill="white"/>
</g>
<defs>
<clipPath id="clip0_4_123">
<rect width="48.0524" height="48.0524" fill="white"/>
</clipPath>
</defs>
</svg>
